<svg xmlns="http://www.w3.org/2000/svg" viewBox="0 0 1200 675" width="1200" height="675">
  <defs>
    <linearGradient id="bg-aitelefonass" x1="0%" y1="0%" x2="100%" y2="100%" gradientTransform="rotate(302 0.5 0.5)">
      <stop offset="0%" stop-color="#334155"/>
      <stop offset="100%" stop-color="#3b82f6"/>
    </linearGradient>
    <radialGradient id="glow1-aitelefonass" cx="50%" cy="50%" r="50%">
      <stop offset="0%" stop-color="#2563eb" stop-opacity="0.55"/>
      <stop offset="100%" stop-color="#2563eb" stop-opacity="0"/>
    </radialGradient>
    <radialGradient id="glow2-aitelefonass" cx="50%" cy="50%" r="50%">
      <stop offset="0%" stop-color="#f59e0b" stop-opacity="0.35"/>
      <stop offset="100%" stop-color="#f59e0b" stop-opacity="0"/>
    </radialGradient>
    <pattern id="dots-aitelefonass" width="28" height="28" patternUnits="userSpaceOnUse">
      <circle cx="1.5" cy="1.5" r="1.5" fill="white" opacity="0.06"/>
    </pattern>
  </defs>

  <rect width="1200" height="675" fill="url(#bg-aitelefonass)"/>
  <rect width="1200" height="675" fill="url(#dots-aitelefonass)"/>
  <circle cx="161.72894509509206" cy="260.7984331436455" r="259.07480865716934" fill="url(#glow1-aitelefonass)"/>
  <circle cx="991.9274752261117" cy="442.3580171656795" r="306.4274587156251" fill="url(#glow2-aitelefonass)"/>

  <line x1="600" y1="-202.5" x2="600" y2="877.5"
    stroke="#f59e0b" stroke-width="140" opacity="0.14"
    transform="rotate(10 600 337.5)"/>

  <circle cx="997.3984408937395" cy="119.73294365219773" r="28.666451043449342" fill="none" stroke="#f59e0b" stroke-width="2" opacity="0.5"/>
  <circle cx="135.1084856428206" cy="547.2022784762084" r="21.666656862478703" fill="#2563eb" opacity="0.18"/>

  <g transform="translate(537.813957631588 295.49388403678313) rotate(-4)">
    <circle r="87.73455677647144" fill="white" opacity="0.06"/>
    <circle r="87.73455677647144" fill="none" stroke="white" stroke-opacity="0.25" stroke-width="1.5"/>
    <rect x="-63.80695038288832" y="-63.80695038288832" width="127.61390076577663" height="127.61390076577663" rx="31.90347519144416"
      fill="url(#glow1-aitelefonass)" opacity="0.9"/>
    <rect x="-63.80695038288832" y="-63.80695038288832" width="127.61390076577663" height="127.61390076577663" rx="31.90347519144416"
      fill="#3b82f6" opacity="0.55"/>
    <g transform="scale(7.97586879786104) translate(-12 -12)">
      <rect x="4" y="5" width="16" height="14" rx="2" fill="none" stroke="white" stroke-width="1.6"/><path d="M4 9.5h16M8 3v4M16 3v4" stroke="white" stroke-width="1.6" stroke-linecap="round"/><circle cx="9" cy="14" r="1.1" fill="white"/><circle cx="15" cy="14" r="1.1" fill="white"/>
    </g>
  </g>
</svg>
