<svg xmlns="http://www.w3.org/2000/svg" viewBox="0 0 1200 675" width="1200" height="675">
  <defs>
    <linearGradient id="bg-aiwidgetspar" x1="0%" y1="0%" x2="100%" y2="100%" gradientTransform="rotate(340 0.5 0.5)">
      <stop offset="0%" stop-color="#0f172a"/>
      <stop offset="100%" stop-color="#1e40af"/>
    </linearGradient>
    <radialGradient id="glow1-aiwidgetspar" cx="50%" cy="50%" r="50%">
      <stop offset="0%" stop-color="#1e3a8a" stop-opacity="0.55"/>
      <stop offset="100%" stop-color="#1e3a8a" stop-opacity="0"/>
    </radialGradient>
    <radialGradient id="glow2-aiwidgetspar" cx="50%" cy="50%" r="50%">
      <stop offset="0%" stop-color="#fbbf24" stop-opacity="0.35"/>
      <stop offset="100%" stop-color="#fbbf24" stop-opacity="0"/>
    </radialGradient>
    <pattern id="dots-aiwidgetspar" width="28" height="28" patternUnits="userSpaceOnUse">
      <circle cx="1.5" cy="1.5" r="1.5" fill="white" opacity="0.09"/>
    </pattern>
  </defs>

  <rect width="1200" height="675" fill="url(#bg-aiwidgetspar)"/>
  <rect width="1200" height="675" fill="url(#dots-aiwidgetspar)"/>
  <circle cx="402.65936092473567" cy="159.10785356536508" r="262.95095317065716" fill="url(#glow1-aiwidgetspar)"/>
  <circle cx="1013.1497835740447" cy="531.8097336799838" r="338.14844793640077" fill="url(#glow2-aiwidgetspar)"/>

  <line x1="600" y1="-202.5" x2="600" y2="877.5"
    stroke="#fbbf24" stroke-width="140" opacity="0.13"
    transform="rotate(94 600 337.5)"/>

  <circle cx="999.9719780813903" cy="193.59379674866798" r="28.755111345555633" fill="none" stroke="#fbbf24" stroke-width="2" opacity="0.5"/>
  <circle cx="149.1381336506456" cy="605.5714659774676" r="19.298180136363953" fill="#1e3a8a" opacity="0.18"/>

  <g transform="translate(504.4309990257025 281.8977511972189) rotate(0)">
    <circle r="90.75170317408629" fill="white" opacity="0.06"/>
    <circle r="90.75170317408629" fill="none" stroke="white" stroke-opacity="0.29" stroke-width="1.5"/>
    <rect x="-66.00123867206275" y="-66.00123867206275" width="132.0024773441255" height="132.0024773441255" rx="33.00061933603138"
      fill="url(#glow1-aiwidgetspar)" opacity="0.9"/>
    <rect x="-66.00123867206275" y="-66.00123867206275" width="132.0024773441255" height="132.0024773441255" rx="33.00061933603138"
      fill="#1e40af" opacity="0.55"/>
    <g transform="scale(8.250154834007844) translate(-12 -12)">
      <circle cx="12" cy="13" r="8" fill="none" stroke="white" stroke-width="1.6"/><path d="M12 9v4l3 2" stroke="white" stroke-width="1.6" stroke-linecap="round" stroke-linejoin="round"/><path d="M9 2h6" stroke="white" stroke-width="1.6" stroke-linecap="round"/>
    </g>
  </g>
</svg>
