<svg xmlns="http://www.w3.org/2000/svg" viewBox="0 0 1200 675" width="1200" height="675">
  <defs>
    <linearGradient id="bg-frigoertider" x1="0%" y1="0%" x2="100%" y2="100%" gradientTransform="rotate(355 0.5 0.5)">
      <stop offset="0%" stop-color="#0f172a"/>
      <stop offset="100%" stop-color="#1e40af"/>
    </linearGradient>
    <radialGradient id="glow1-frigoertider" cx="50%" cy="50%" r="50%">
      <stop offset="0%" stop-color="#2563eb" stop-opacity="0.55"/>
      <stop offset="100%" stop-color="#2563eb" stop-opacity="0"/>
    </radialGradient>
    <radialGradient id="glow2-frigoertider" cx="50%" cy="50%" r="50%">
      <stop offset="0%" stop-color="#fbbf24" stop-opacity="0.35"/>
      <stop offset="100%" stop-color="#fbbf24" stop-opacity="0"/>
    </radialGradient>
    <pattern id="dots-frigoertider" width="28" height="28" patternUnits="userSpaceOnUse">
      <circle cx="1.5" cy="1.5" r="1.5" fill="white" opacity="0.09"/>
    </pattern>
  </defs>

  <rect width="1200" height="675" fill="url(#bg-frigoertider)"/>
  <rect width="1200" height="675" fill="url(#dots-frigoertider)"/>
  <circle cx="390.65303256502375" cy="244.30085541680455" r="254.8745596781373" fill="url(#glow1-frigoertider)"/>
  <circle cx="929.539751901757" cy="359.6465889364481" r="331.3026988413185" fill="url(#glow2-frigoertider)"/>

  <line x1="600" y1="-202.5" x2="600" y2="877.5"
    stroke="#fbbf24" stroke-width="140" opacity="0.16"
    transform="rotate(237 600 337.5)"/>

  <circle cx="130.57806712388992" cy="143.14748761709782" r="47.39448116719723" fill="none" stroke="#fbbf24" stroke-width="2" opacity="0.5"/>
  <circle cx="125.75556849315763" cy="538.7868793923408" r="23.97152506466955" fill="#2563eb" opacity="0.18"/>

  <g transform="translate(659.9295148774983 387.0552201205864) rotate(5)">
    <circle r="88.53524510667194" fill="white" opacity="0.06"/>
    <circle r="88.53524510667194" fill="none" stroke="white" stroke-opacity="0.17" stroke-width="1.5"/>
    <rect x="-64.38926916848868" y="-64.38926916848868" width="128.77853833697736" height="128.77853833697736" rx="32.19463458424434"
      fill="url(#glow1-frigoertider)" opacity="0.9"/>
    <rect x="-64.38926916848868" y="-64.38926916848868" width="128.77853833697736" height="128.77853833697736" rx="32.19463458424434"
      fill="#1e40af" opacity="0.55"/>
    <g transform="scale(8.048658646061085) translate(-12 -12)">
      <rect x="4" y="5" width="16" height="14" rx="2" fill="none" stroke="white" stroke-width="1.6"/><path d="M4 9.5h16M8 3v4M16 3v4" stroke="white" stroke-width="1.6" stroke-linecap="round"/><circle cx="9" cy="14" r="1.1" fill="white"/><circle cx="15" cy="14" r="1.1" fill="white"/>
    </g>
  </g>
</svg>
