<svg xmlns="http://www.w3.org/2000/svg" viewBox="0 0 1200 675" width="1200" height="675">
  <defs>
    <linearGradient id="bg-mindrevirkso" x1="0%" y1="0%" x2="100%" y2="100%" gradientTransform="rotate(103 0.5 0.5)">
      <stop offset="0%" stop-color="#0f172a"/>
      <stop offset="100%" stop-color="#1e40af"/>
    </linearGradient>
    <radialGradient id="glow1-mindrevirkso" cx="50%" cy="50%" r="50%">
      <stop offset="0%" stop-color="#3b82f6" stop-opacity="0.55"/>
      <stop offset="100%" stop-color="#3b82f6" stop-opacity="0"/>
    </radialGradient>
    <radialGradient id="glow2-mindrevirkso" cx="50%" cy="50%" r="50%">
      <stop offset="0%" stop-color="#f59e0b" stop-opacity="0.35"/>
      <stop offset="100%" stop-color="#f59e0b" stop-opacity="0"/>
    </radialGradient>
    <pattern id="dots-mindrevirkso" width="28" height="28" patternUnits="userSpaceOnUse">
      <circle cx="1.5" cy="1.5" r="1.5" fill="white" opacity="0.07"/>
    </pattern>
  </defs>

  <rect width="1200" height="675" fill="url(#bg-mindrevirkso)"/>
  <rect width="1200" height="675" fill="url(#dots-mindrevirkso)"/>
  <circle cx="253.28482242766768" cy="203.2684245146811" r="244.41609792411327" fill="url(#glow1-mindrevirkso)"/>
  <circle cx="1077.6004569139332" cy="472.0529676647857" r="376.2644011294469" fill="url(#glow2-mindrevirkso)"/>

  <line x1="600" y1="-202.5" x2="600" y2="877.5"
    stroke="#f59e0b" stroke-width="140" opacity="0.12"
    transform="rotate(43 600 337.5)"/>

  <circle cx="260.01996776461607" cy="100.68166854232551" r="28.346192495897412" fill="none" stroke="#f59e0b" stroke-width="2" opacity="0.5"/>
  <circle cx="217.31215905211866" cy="531.5018836017698" r="17.999604542274028" fill="#3b82f6" opacity="0.18"/>

  <g transform="translate(672.7142023220658 259.33293884340674) rotate(4)">
    <circle r="77.7491887860233" fill="white" opacity="0.06"/>
    <circle r="77.7491887860233" fill="none" stroke="white" stroke-opacity="0.21" stroke-width="1.5"/>
    <rect x="-56.54486457165331" y="-56.54486457165331" width="113.08972914330661" height="113.08972914330661" rx="28.272432285826653"
      fill="url(#glow1-mindrevirkso)" opacity="0.9"/>
    <rect x="-56.54486457165331" y="-56.54486457165331" width="113.08972914330661" height="113.08972914330661" rx="28.272432285826653"
      fill="#1e40af" opacity="0.55"/>
    <g transform="scale(7.068108071456663) translate(-12 -12)">
      <path d="M4 20V10M10 20V4M16 20v-7M22 20H2" stroke="white" stroke-width="1.6" stroke-linecap="round" stroke-linejoin="round"/>
    </g>
  </g>
</svg>
