<svg xmlns="http://www.w3.org/2000/svg" viewBox="0 0 1200 675" width="1200" height="675">
  <defs>
    <linearGradient id="bg-mindrevirkso" x1="0%" y1="0%" x2="100%" y2="100%" gradientTransform="rotate(103 0.5 0.5)">
      <stop offset="0%" stop-color="#0f172a"/>
      <stop offset="100%" stop-color="#1e40af"/>
    </linearGradient>
    <radialGradient id="glow1-mindrevirkso" cx="50%" cy="50%" r="50%">
      <stop offset="0%" stop-color="#3b82f6" stop-opacity="0.55"/>
      <stop offset="100%" stop-color="#3b82f6" stop-opacity="0"/>
    </radialGradient>
    <radialGradient id="glow2-mindrevirkso" cx="50%" cy="50%" r="50%">
      <stop offset="0%" stop-color="#f59e0b" stop-opacity="0.35"/>
      <stop offset="100%" stop-color="#f59e0b" stop-opacity="0"/>
    </radialGradient>
    <pattern id="dots-mindrevirkso" width="28" height="28" patternUnits="userSpaceOnUse">
      <circle cx="1.5" cy="1.5" r="1.5" fill="white" opacity="0.09"/>
    </pattern>
  </defs>

  <rect width="1200" height="675" fill="url(#bg-mindrevirkso)"/>
  <rect width="1200" height="675" fill="url(#dots-mindrevirkso)"/>
  <circle cx="253.28482242766768" cy="203.2684245146811" r="244.41609792411327" fill="url(#glow1-mindrevirkso)"/>
  <circle cx="1077.6004569139332" cy="472.0529676647857" r="376.2644011294469" fill="url(#glow2-mindrevirkso)"/>

  <line x1="600" y1="-202.5" x2="600" y2="877.5"
    stroke="#f59e0b" stroke-width="140" opacity="0.11"
    transform="rotate(126 600 337.5)"/>

  <circle cx="876.363337084651" cy="101.9526114575565" r="55.408413141500205" fill="none" stroke="#f59e0b" stroke-width="2" opacity="0.5"/>
  <circle cx="79.78070782497525" cy="550.4976272536442" r="16.1588439992629" fill="#3b82f6" opacity="0.18"/>

  <g transform="translate(461.036335721612 322.9345971462317) rotate(-5)">
    <circle r="92.19319640228059" fill="white" opacity="0.06"/>
    <circle r="92.19319640228059" fill="none" stroke="white" stroke-opacity="0.21" stroke-width="1.5"/>
    <rect x="-67.0495973834768" y="-67.0495973834768" width="134.0991947669536" height="134.0991947669536" rx="33.5247986917384"
      fill="url(#glow1-mindrevirkso)" opacity="0.9"/>
    <rect x="-67.0495973834768" y="-67.0495973834768" width="134.0991947669536" height="134.0991947669536" rx="33.5247986917384"
      fill="#1e40af" opacity="0.55"/>
    <g transform="scale(8.3811996729346) translate(-12 -12)">
      <rect x="4" y="5" width="16" height="14" rx="2" fill="none" stroke="white" stroke-width="1.6"/><path d="M4 9.5h16M8 3v4M16 3v4" stroke="white" stroke-width="1.6" stroke-linecap="round"/><circle cx="9" cy="14" r="1.1" fill="white"/><circle cx="15" cy="14" r="1.1" fill="white"/>
    </g>
  </g>
</svg>
