<svg xmlns="http://www.w3.org/2000/svg" viewBox="0 0 1200 675" width="1200" height="675">
  <defs>
    <linearGradient id="bg-mistekundela" x1="0%" y1="0%" x2="100%" y2="100%" gradientTransform="rotate(109 0.5 0.5)">
      <stop offset="0%" stop-color="#241c3d"/>
      <stop offset="100%" stop-color="#7c3aed"/>
    </linearGradient>
    <radialGradient id="glow1-mistekundela" cx="50%" cy="50%" r="50%">
      <stop offset="0%" stop-color="#7c3aed" stop-opacity="0.55"/>
      <stop offset="100%" stop-color="#7c3aed" stop-opacity="0"/>
    </radialGradient>
    <radialGradient id="glow2-mistekundela" cx="50%" cy="50%" r="50%">
      <stop offset="0%" stop-color="#fbbf24" stop-opacity="0.35"/>
      <stop offset="100%" stop-color="#fbbf24" stop-opacity="0"/>
    </radialGradient>
    <pattern id="dots-mistekundela" width="28" height="28" patternUnits="userSpaceOnUse">
      <circle cx="1.5" cy="1.5" r="1.5" fill="white" opacity="0.07"/>
    </pattern>
  </defs>

  <rect width="1200" height="675" fill="url(#bg-mistekundela)"/>
  <rect width="1200" height="675" fill="url(#dots-mistekundela)"/>
  <circle cx="150.86816437542439" cy="130.21809426136315" r="314.8896364867687" fill="url(#glow1-mistekundela)"/>
  <circle cx="1059.983610198833" cy="403.9927940699272" r="290.3522691782564" fill="url(#glow2-mistekundela)"/>

  <line x1="600" y1="-202.5" x2="600" y2="877.5"
    stroke="#fbbf24" stroke-width="140" opacity="0.08"
    transform="rotate(212 600 337.5)"/>

  <circle cx="157.14439657330513" cy="174.9578090161085" r="53.11297835363075" fill="none" stroke="#fbbf24" stroke-width="2" opacity="0.5"/>
  <circle cx="126.71246169134974" cy="598.7082651229575" r="22.691763259936124" fill="#7c3aed" opacity="0.18"/>

  <g transform="translate(722.5539517700672 305.32445843098685) rotate(-4)">
    <circle r="82.99157095293049" fill="white" opacity="0.06"/>
    <circle r="82.99157095293049" fill="none" stroke="white" stroke-opacity="0.15" stroke-width="1.5"/>
    <rect x="-60.35750614758581" y="-60.35750614758581" width="120.71501229517162" height="120.71501229517162" rx="30.178753073792905"
      fill="url(#glow1-mistekundela)" opacity="0.9"/>
    <rect x="-60.35750614758581" y="-60.35750614758581" width="120.71501229517162" height="120.71501229517162" rx="30.178753073792905"
      fill="#7c3aed" opacity="0.55"/>
    <g transform="scale(7.544688268448226) translate(-12 -12)">
      <path d="M4 5h16v10H9l-3 3v-3H4V5z" fill="none" stroke="white" stroke-width="1.6" stroke-linejoin="round"/><circle cx="9" cy="10" r="1" fill="white"/><circle cx="12" cy="10" r="1" fill="white"/><circle cx="15" cy="10" r="1" fill="white"/>
    </g>
  </g>
</svg>
