<svg xmlns="http://www.w3.org/2000/svg" viewBox="0 0 1200 675" width="1200" height="675">
  <defs>
    <linearGradient id="bg-roiaiautomat" x1="0%" y1="0%" x2="100%" y2="100%" gradientTransform="rotate(209 0.5 0.5)">
      <stop offset="0%" stop-color="#0f172a"/>
      <stop offset="100%" stop-color="#1d4ed8"/>
    </linearGradient>
    <radialGradient id="glow1-roiaiautomat" cx="50%" cy="50%" r="50%">
      <stop offset="0%" stop-color="#1d4ed8" stop-opacity="0.55"/>
      <stop offset="100%" stop-color="#1d4ed8" stop-opacity="0"/>
    </radialGradient>
    <radialGradient id="glow2-roiaiautomat" cx="50%" cy="50%" r="50%">
      <stop offset="0%" stop-color="#f59e0b" stop-opacity="0.35"/>
      <stop offset="100%" stop-color="#f59e0b" stop-opacity="0"/>
    </radialGradient>
    <pattern id="dots-roiaiautomat" width="28" height="28" patternUnits="userSpaceOnUse">
      <circle cx="1.5" cy="1.5" r="1.5" fill="white" opacity="0.09"/>
    </pattern>
  </defs>

  <rect width="1200" height="675" fill="url(#bg-roiaiautomat)"/>
  <rect width="1200" height="675" fill="url(#dots-roiaiautomat)"/>
  <circle cx="264.5308913779445" cy="152.6425390969962" r="227.5941115990281" fill="url(#glow1-roiaiautomat)"/>
  <circle cx="959.8996777785942" cy="365.3963823686354" r="216.86204044613987" fill="url(#glow2-roiaiautomat)"/>

  <line x1="600" y1="-202.5" x2="600" y2="877.5"
    stroke="#f59e0b" stroke-width="140" opacity="0.10"
    transform="rotate(275 600 337.5)"/>

  <circle cx="127.0182654708624" cy="170.64346352778375" r="51.485808790661395" fill="none" stroke="#f59e0b" stroke-width="2" opacity="0.5"/>
  <circle cx="222.49082207120955" cy="617.7819545902312" r="23.08008721563965" fill="#1d4ed8" opacity="0.18"/>

  <g transform="translate(708.7664939314126 268.9500667490065) rotate(3)">
    <circle r="97.9949668146437" fill="white" opacity="0.06"/>
    <circle r="97.9949668146437" fill="none" stroke="white" stroke-opacity="0.21" stroke-width="1.5"/>
    <rect x="-71.26906677428633" y="-71.26906677428633" width="142.53813354857266" height="142.53813354857266" rx="35.634533387143165"
      fill="url(#glow1-roiaiautomat)" opacity="0.9"/>
    <rect x="-71.26906677428633" y="-71.26906677428633" width="142.53813354857266" height="142.53813354857266" rx="35.634533387143165"
      fill="#1d4ed8" opacity="0.55"/>
    <g transform="scale(8.908633346785791) translate(-12 -12)">
      <path d="M4 20V10M10 20V4M16 20v-7M22 20H2" stroke="white" stroke-width="1.6" stroke-linecap="round" stroke-linejoin="round"/>
    </g>
  </g>
</svg>
